<svg width="64" height="84" viewBox="0 0 64 84" fill="none" xmlns="http://www.w3.org/2000/svg">
<rect width="64" height="84" fill="#E5E5E5"/>
<g id="Logo/Lockup-stacked">
<path id="Vector" d="M19.5946 0.0494189C21.9203 -0.242124 24.9324 0.790207 26.7162 2.25176C28.9621 4.09202 30.6602 7.01135 30.6004 9.97914C30.573 11.3481 30.4183 12.6904 30.6084 14.055C31.3706 19.3543 34.4893 22.6671 39.8063 23.5521C41.3418 23.8072 42.0912 23.6149 43.5114 23.5844C45.8648 23.5289 48.1644 24.2893 50.0203 25.7376C56.514 30.8141 54.7319 40.7462 47.064 43.4889C46.1266 43.8246 45.3582 43.9533 44.372 44.0644C42.1974 44.4617 38.8749 43.2368 37.1844 41.8673C34.8274 39.9662 33.42 37.1289 33.3322 34.1018C33.2968 32.8153 33.4792 31.7491 33.3267 30.393C32.7548 25.3036 29.3597 21.3782 24.2082 20.6055C22.4948 20.3488 22.0603 20.5309 20.4721 20.5632C18.064 20.6098 15.7169 19.8048 13.8446 18.2897C6.48668 12.2354 10.3967 0.884011 19.5946 0.0494189Z" fill="#2D6BFF"/>
<path id="Relay" d="M1.72159 77.1401V59.6856H8.26705C9.60795 59.6856 10.733 59.9185 11.642 60.3845C12.5568 60.8504 13.2472 61.5038 13.7131 62.3447C14.1847 63.1799 14.4205 64.1543 14.4205 65.268C14.4205 66.3873 14.1818 67.3589 13.7045 68.1828C13.233 69.0009 12.5369 69.6345 11.6165 70.0833C10.696 70.5265 9.56534 70.7481 8.22443 70.7481H3.5625V68.1231H7.7983C8.58239 68.1231 9.22443 68.0151 9.72443 67.7992C10.2244 67.5776 10.5938 67.2566 10.8324 66.8362C11.0767 66.41 11.1989 65.8873 11.1989 65.268C11.1989 64.6487 11.0767 64.1203 10.8324 63.6828C10.5881 63.2396 10.2159 62.9043 9.71591 62.6771C9.21591 62.4441 8.57102 62.3276 7.78125 62.3276H4.88352V77.1401H1.72159ZM10.7386 69.231L15.0597 77.1401H11.5312L7.28693 69.231H10.7386ZM22.8026 77.3958C21.4901 77.3958 20.3565 77.1231 19.402 76.5776C18.4531 76.0265 17.723 75.2481 17.2116 74.2424C16.7003 73.231 16.4446 72.0407 16.4446 70.6714C16.4446 69.3248 16.7003 68.143 17.2116 67.1259C17.7287 66.1032 18.4503 65.3077 19.3764 64.7396C20.3026 64.1657 21.3906 63.8788 22.6406 63.8788C23.4474 63.8788 24.2088 64.0095 24.9247 64.2708C25.6463 64.5265 26.2827 64.9242 26.8338 65.464C27.3906 66.0038 27.8281 66.6913 28.1463 67.5265C28.4645 68.356 28.6236 69.3447 28.6236 70.4924V71.4384H17.8935V69.3589H25.6662C25.6605 68.768 25.5327 68.2424 25.2827 67.7822C25.0327 67.3163 24.6832 66.9498 24.2344 66.6828C23.7912 66.4157 23.2741 66.2822 22.6832 66.2822C22.0526 66.2822 21.4986 66.4356 21.0213 66.7424C20.544 67.0435 20.1719 67.4413 19.9048 67.9356C19.6435 68.4242 19.5099 68.9612 19.5043 69.5464V71.3617C19.5043 72.1231 19.6435 72.7765 19.9219 73.322C20.2003 73.8617 20.5895 74.2765 21.0895 74.5663C21.5895 74.8504 22.1747 74.9924 22.8452 74.9924C23.294 74.9924 23.7003 74.9299 24.0639 74.8049C24.4276 74.6742 24.7429 74.4839 25.0099 74.2339C25.277 73.9839 25.4787 73.6742 25.6151 73.3049L28.4957 73.6288C28.3139 74.3901 27.9673 75.0549 27.456 75.6231C26.9503 76.1856 26.3026 76.6231 25.5128 76.9356C24.723 77.2424 23.8196 77.3958 22.8026 77.3958ZM34.3189 59.6856V77.1401H31.2337V59.6856H34.3189ZM41.2585 77.4043C40.429 77.4043 39.6818 77.2566 39.017 76.9612C38.358 76.66 37.8352 76.2168 37.4489 75.6316C37.0682 75.0464 36.8778 74.3248 36.8778 73.4668C36.8778 72.7282 37.0142 72.1174 37.2869 71.6345C37.5597 71.1515 37.9318 70.7651 38.4034 70.4754C38.875 70.1856 39.4063 69.9668 39.9972 69.8191C40.5938 69.6657 41.2102 69.5549 41.8466 69.4867C42.6136 69.4072 43.2358 69.3362 43.7131 69.2737C44.1903 69.2055 44.5369 69.1032 44.7528 68.9668C44.9744 68.8248 45.0852 68.606 45.0852 68.3106V68.2595C45.0852 67.6174 44.8949 67.1203 44.5142 66.768C44.1335 66.4157 43.5852 66.2396 42.8693 66.2396C42.1136 66.2396 41.5142 66.4043 41.071 66.7339C40.6335 67.0634 40.3381 67.4526 40.1847 67.9015L37.304 67.4924C37.5313 66.697 37.9063 66.0322 38.429 65.4981C38.9517 64.9583 39.5909 64.5549 40.3466 64.2879C41.1023 64.0151 41.9375 63.8788 42.8523 63.8788C43.483 63.8788 44.1108 63.9526 44.7358 64.1004C45.3608 64.2481 45.9318 64.4924 46.4489 64.8333C46.9659 65.1685 47.3807 65.6259 47.6932 66.2055C48.0114 66.785 48.1705 67.5095 48.1705 68.3788V77.1401H45.2045V75.3418H45.1023C44.9148 75.7055 44.6506 76.0464 44.3097 76.3646C43.9744 76.6771 43.5511 76.9299 43.0398 77.1231C42.5341 77.3106 41.9403 77.4043 41.2585 77.4043ZM42.0597 75.1373C42.679 75.1373 43.2159 75.0151 43.6705 74.7708C44.125 74.5208 44.4744 74.1913 44.7188 73.7822C44.9688 73.3731 45.0938 72.9271 45.0938 72.4441V70.9015C44.9972 70.981 44.8324 71.0549 44.5994 71.1231C44.3722 71.1913 44.1165 71.2509 43.8324 71.3021C43.5483 71.3532 43.267 71.3987 42.9886 71.4384C42.7102 71.4782 42.4688 71.5123 42.2642 71.5407C41.804 71.6032 41.392 71.7055 41.0284 71.8475C40.6648 71.9896 40.3778 72.1884 40.1676 72.4441C39.9574 72.6941 39.8523 73.018 39.8523 73.4157C39.8523 73.9839 40.0597 74.4129 40.4744 74.7026C40.8892 74.9924 41.4176 75.1373 42.0597 75.1373ZM52.7216 82.0492C52.3011 82.0492 51.9119 82.0151 51.554 81.947C51.2017 81.8845 50.9205 81.8106 50.7102 81.7254L51.4261 79.322C51.875 79.4526 52.2756 79.5151 52.6278 79.5095C52.9801 79.5038 53.2898 79.393 53.5568 79.1771C53.8295 78.9668 54.0597 78.6146 54.2472 78.1203L54.5114 77.4129L49.7642 64.0492H53.0369L56.054 73.9356H56.1903L59.2159 64.0492H62.4972L57.2557 78.7254C57.0114 79.4185 56.6875 80.0123 56.2841 80.5066C55.8807 81.0066 55.3864 81.3873 54.8011 81.6487C54.2216 81.9157 53.5284 82.0492 52.7216 82.0492Z" fill="#0B0D12"/>
</g>
</svg>
