<svg width="48" height="49" viewBox="0 0 48 49" fill="none" xmlns="http://www.w3.org/2000/svg">
<rect width="48" height="49" fill="#E5E5E5"/>
<g id="Logo/Mark">
<path id="Vector" d="M5.02409 0.0259601C6.24191 -0.127189 7.81915 0.415101 8.75321 1.18287C9.92926 2.14956 10.8185 3.68311 10.7871 5.24211C10.7728 5.96121 10.6918 6.66633 10.7913 7.38318C11.1904 10.167 12.8235 11.9072 15.6076 12.3721C16.4117 12.5061 16.8041 12.4051 17.5478 12.3891C18.7801 12.3599 19.9843 12.7593 20.9561 13.5201C24.3564 16.1868 23.4232 21.4042 19.4081 22.845C18.9172 23.0213 18.5148 23.089 17.9984 23.1473C16.8598 23.356 15.12 22.7126 14.2347 21.9932C13.0005 20.9945 12.2636 19.5041 12.2176 17.9139C12.199 17.2381 12.2946 16.678 12.2147 15.9656C11.9152 13.2922 10.1375 11.2301 7.43994 10.8242C6.54273 10.6894 6.31519 10.785 5.48355 10.802C4.22262 10.8265 2.99356 10.4036 2.01319 9.60768C-1.8397 6.42735 0.207737 0.464377 5.02409 0.0259601Z" fill="#2D6BFF"/>
</g>
</svg>
