<svg width="118" height="34" viewBox="0 0 118 34" fill="none" xmlns="http://www.w3.org/2000/svg">
<rect width="118" height="34" fill="#E5E5E5"/>
<g id="Logo/Lockup-horizontal">
<path id="Vector" d="M6.54179 1.98584C8.12748 1.78706 10.1812 2.49093 11.3974 3.48744C12.9287 4.74216 14.0865 6.73261 14.0457 8.7561C14.027 9.68946 13.9216 10.6047 14.0512 11.5351C14.5709 15.1483 16.6972 17.407 20.3225 18.0104C21.3694 18.1843 21.8804 18.0532 22.8487 18.0324C24.4532 17.9946 26.0212 18.513 27.2866 19.5005C31.7141 22.9617 30.499 29.7336 25.2709 31.6037C24.6318 31.8325 24.1079 31.9203 23.4354 31.9961C21.9528 32.267 19.6875 31.4318 18.5348 30.498C16.9278 29.2018 15.9682 27.2673 15.9083 25.2034C15.8842 24.3262 16.0086 23.5992 15.9045 22.6746C15.5146 19.2046 13.1998 16.5282 9.68742 16.0014C8.51918 15.8263 8.2229 15.9505 7.14004 15.9725C5.49821 16.0043 3.89787 15.4554 2.62134 14.4224C-2.39544 10.2945 0.270491 2.55488 6.54179 1.98584Z" fill="#2D6BFF"/>
<path id="Relay" d="M46.0085 27V6.63636H53.6449C55.2093 6.63636 56.5218 6.90814 57.5824 7.4517C58.6496 7.99526 59.455 8.75757 59.9986 9.73864C60.5488 10.7131 60.8239 11.8499 60.8239 13.1491C60.8239 14.455 60.5455 15.5885 59.9886 16.5497C59.4384 17.5043 58.6264 18.2434 57.5526 18.767C56.4787 19.2841 55.1596 19.5426 53.5952 19.5426H48.1562V16.4801H53.098C54.0128 16.4801 54.7618 16.3542 55.3452 16.1023C55.9285 15.8437 56.3594 15.4692 56.6378 14.9787C56.9228 14.4815 57.0653 13.8717 57.0653 13.1491C57.0653 12.4266 56.9228 11.8101 56.6378 11.2997C56.3527 10.7827 55.9186 10.3916 55.3352 10.1264C54.7519 9.85464 53.9995 9.71875 53.0781 9.71875H49.6974V27H46.0085ZM56.5284 17.7727L61.5696 27H57.4531L52.5014 17.7727H56.5284ZM70.603 27.2983C69.0717 27.2983 67.7493 26.9801 66.6357 26.3438C65.5286 25.7008 64.6768 24.7926 64.0803 23.6193C63.4837 22.4394 63.1854 21.0507 63.1854 19.4531C63.1854 17.8821 63.4837 16.5033 64.0803 15.3168C64.6835 14.1236 65.5253 13.1955 66.6058 12.5327C67.6863 11.8632 68.9557 11.5284 70.4141 11.5284C71.3554 11.5284 72.2436 11.6809 73.0788 11.9858C73.9207 12.2841 74.6631 12.7481 75.3061 13.3778C75.9557 14.0076 76.4661 14.8097 76.8374 15.7841C77.2086 16.7519 77.3942 17.9053 77.3942 19.2443V20.348H64.8757V17.9219H73.9439C73.9373 17.2325 73.7881 16.6193 73.4964 16.0824C73.2048 15.5388 72.7971 15.1113 72.2734 14.7997C71.7564 14.4882 71.1532 14.3324 70.4638 14.3324C69.728 14.3324 69.0817 14.5114 68.5249 14.8693C67.968 15.2206 67.5339 15.6847 67.2223 16.2614C66.9174 16.8314 66.7616 17.4579 66.755 18.1406V20.2585C66.755 21.1468 66.9174 21.9091 67.2422 22.5455C67.567 23.1752 68.0211 23.6591 68.6044 23.9972C69.1877 24.3286 69.8705 24.4943 70.6527 24.4943C71.1764 24.4943 71.6503 24.4214 72.0746 24.2756C72.4988 24.1231 72.8667 23.901 73.1783 23.6094C73.4898 23.3177 73.7251 22.9564 73.8842 22.5256L77.245 22.9034C77.0329 23.7917 76.6286 24.5672 76.032 25.2301C75.442 25.8864 74.6863 26.3968 73.7649 26.7614C72.8435 27.1193 71.7895 27.2983 70.603 27.2983ZM84.0387 6.63636V27H80.4393V6.63636H84.0387ZM92.1349 27.3082C91.1671 27.3082 90.2955 27.1359 89.5199 26.7912C88.7509 26.4399 88.1411 25.9228 87.6903 25.2401C87.2462 24.5573 87.0241 23.7154 87.0241 22.7145C87.0241 21.8527 87.1832 21.1402 87.5014 20.5767C87.8196 20.0133 88.2538 19.5625 88.804 19.2244C89.3542 18.8864 89.974 18.6312 90.6634 18.4588C91.3594 18.2798 92.0786 18.1506 92.821 18.071C93.7159 17.9782 94.4418 17.8954 94.9986 17.8224C95.5554 17.7429 95.9598 17.6236 96.2116 17.4645C96.4702 17.2988 96.5994 17.0436 96.5994 16.6989V16.6392C96.5994 15.8902 96.3774 15.3101 95.9332 14.8991C95.4891 14.4882 94.8494 14.2827 94.0142 14.2827C93.1326 14.2827 92.4332 14.4749 91.9162 14.8594C91.4058 15.2438 91.0611 15.6979 90.8821 16.2216L87.5213 15.7443C87.7865 14.8163 88.224 14.0407 88.8338 13.4176C89.4437 12.7879 90.1894 12.3172 91.071 12.0057C91.9527 11.6875 92.9271 11.5284 93.9943 11.5284C94.7301 11.5284 95.4626 11.6146 96.1918 11.7869C96.9209 11.9593 97.5871 12.2443 98.1903 12.642C98.7936 13.0331 99.2775 13.5668 99.642 14.2429C100.013 14.919 100.199 15.7642 100.199 16.7784V27H96.7386V24.902H96.6193C96.4006 25.3262 96.0923 25.724 95.6946 26.0952C95.3035 26.4598 94.8097 26.7547 94.2131 26.9801C93.6231 27.1989 92.9304 27.3082 92.1349 27.3082ZM93.0696 24.6634C93.7921 24.6634 94.4186 24.5208 94.9489 24.2358C95.4792 23.9441 95.8868 23.5597 96.1719 23.0824C96.4635 22.6051 96.6094 22.0848 96.6094 21.5213V19.7216C96.4967 19.8144 96.3045 19.9006 96.0327 19.9801C95.7675 20.0597 95.4692 20.1293 95.1378 20.1889C94.8063 20.2486 94.4782 20.3016 94.1534 20.348C93.8286 20.3944 93.5469 20.4342 93.3082 20.4673C92.7713 20.5402 92.2907 20.6596 91.8665 20.8253C91.4422 20.991 91.1075 21.223 90.8622 21.5213C90.617 21.813 90.4943 22.1908 90.4943 22.6548C90.4943 23.3177 90.7363 23.8182 91.2202 24.1562C91.7041 24.4943 92.3205 24.6634 93.0696 24.6634ZM105.509 32.7273C105.018 32.7273 104.564 32.6875 104.146 32.608C103.735 32.535 103.407 32.4489 103.162 32.3494L103.997 29.5455C104.521 29.6979 104.988 29.7708 105.399 29.7642C105.81 29.7576 106.171 29.6283 106.483 29.3764C106.801 29.1312 107.07 28.7202 107.288 28.1435L107.597 27.3182L102.058 11.7273H105.876L109.396 23.2614H109.555L113.085 11.7273H116.913L110.798 28.8494C110.513 29.6581 110.135 30.3509 109.665 30.9276C109.194 31.5109 108.617 31.955 107.935 32.2599C107.259 32.5715 106.45 32.7273 105.509 32.7273Z" fill="#0B0D12"/>
</g>
</svg>
