<svg viewBox="0 0 550 560" fill="none" xmlns="http://www.w3.org/2000/svg">
  <path d="M181.375 0.324833L183.385 0.29134C221.979 -0.25916 261.421 0.140838 300.063 0.133838L346.443 0.21233C358.737 0.21033 371.628 -0.0961622 383.832 1.05834C425.351 4.71584 464.324 22.6853 494.136 51.9158C532.133 89.0538 550.006 134.81 549.966 187.671C549.931 226.869 549.846 266.129 549.846 305.326L549.996 353.181C550.111 396.336 547.884 427.031 525.608 465.846C517.643 480.041 507.865 493.126 496.513 504.771C463.108 539.076 417.475 558.626 369.685 559.101L247.551 559.051L200.802 559.111C190.731 559.161 179.09 559.571 169.209 558.786C127.886 555.626 88.8915 538.336 58.7306 509.806C22.7423 476.051 1.7603 429.211 0.492084 379.791C-0.611757 342.796 0.512004 302.626 0.334672 265.398L0.163321 207.324C0.187729 193.209 -0.173911 178.763 1.21934 164.853C9.42143 82.9578 73.508 15.4468 154.297 2.45333C163.433 0.983827 172.072 0.589833 181.375 0.324833Z" fill="white"/>
  <path d="M185.115 117.968C202.196 115.827 224.318 123.409 237.419 134.143C253.913 147.658 266.385 169.099 265.946 190.895C265.744 200.949 264.608 210.807 266.004 220.83C271.602 259.75 294.507 284.08 333.556 290.579C344.834 292.453 350.338 291.041 360.768 290.817C378.052 290.409 394.941 295.994 408.572 306.63C456.263 343.914 443.175 416.859 386.86 437.002C379.975 439.467 374.332 440.413 367.088 441.229C351.118 444.147 326.716 435.151 314.3 425.093C296.99 411.13 286.654 390.292 286.008 368.06C285.748 358.611 287.089 350.781 285.968 340.821C281.768 303.443 256.834 274.613 218.999 268.939C206.415 267.054 203.224 268.391 191.559 268.628C173.874 268.97 156.636 263.058 142.885 251.93C88.8461 207.466 117.563 124.097 185.115 117.968Z" fill="#3A58F0"/>
</svg>
